<?xml version="1.0"?>
<svg xmlns="http://www.w3.org/2000/svg" viewBox="0 0 24 24">
    <path d="M 3.65625 6 C 2.73525 6 2 6.77175 2 7.71875 L 2 16.28125 C 2 17.22825 2.73525 18 3.65625 18 L 20.34375 18 C 21.26375 18 22 17.22725 22 16.28125 L 22 7.71875 C 22 6.77175 21.26475 6 20.34375 6 L 3.65625 6 z M 6.5625 9 C 8.2815 9.016 8.5625 10.5495 8.5625 10.8125 L 7.28125 10.8125 C 7.28125 10.6905 7.30525 9.94275 6.53125 9.96875 C 5.91325 9.98975 5.7755 10.397 5.8125 10.625 C 5.8735 11.021 6.26625 11.18675 6.78125 11.46875 C 8.09025 12.18675 8.5555 12.543 8.5625 13.375 C 8.5745 14.843 7.0515 14.97075 6.5625 14.96875 C 4.5675 14.95875 4.34375 13.3925 4.34375 13.0625 L 5.65625 13.0625 C 5.65625 13.2385 5.8015 14.08525 6.5625 14.03125 C 7.1295 13.99125 7.257 13.581 7.25 13.375 C 7.228 12.706 6.21 12.5445 5.625 12.1875 C 5.061 11.8425 4.512 11.546 4.5 10.625 C 4.486 9.624 5.1865 8.987 6.5625 9 z M 12.09375 9 C 14.32575 8.984 14.4375 11.11225 14.4375 11.53125 L 14.4375 12.4375 C 14.4605 13.7305 13.8375 14.32425 13.5625 14.53125 L 14.46875 15.25 L 13.625 15.9375 L 12.4375 14.96875 C 12.3815 14.97475 12.15175 14.96875 12.09375 14.96875 C 9.86275 14.95875 9.78125 12.8575 9.78125 12.4375 L 9.78125 11.5625 C 9.84125 9.0315 11.74875 9.002 12.09375 9 z M 15.8125 9.09375 L 17.125 9.09375 L 17.125 13.9375 L 19.40625 13.9375 L 19.40625 14.90625 L 15.8125 14.90625 L 15.8125 9.09375 z M 12.09375 9.96875 C 11.15375 9.95475 11.0625 11.25525 11.0625 11.53125 L 11.0625 12.4375 C 11.0625 12.7115 11.23775 14.002 12.09375 14 C 13.01875 13.999 13.125 12.7115 13.125 12.4375 L 13.125 11.53125 C 13.125 11.25525 13.01375 9.98275 12.09375 9.96875 z"/>
</svg>
